<svg xmlns="http://www.w3.org/2000/svg" viewBox="0 0 340 210" role="img" aria-labelledby="title desc">
  <title id="title">ICIT Solutions logo</title>
  <desc id="desc">Rounded tile logo with blue and orange bars.</desc>
  <g fill="#2fa7e2">
    <rect x="64" y="10" width="44" height="44" rx="8" />
    <rect x="118" y="10" width="44" height="44" rx="8" />
    <rect x="172" y="10" width="44" height="44" rx="8" />
    <rect x="226" y="10" width="44" height="44" rx="8" />
    <rect x="280" y="10" width="44" height="44" rx="8" />

    <rect x="10" y="64" width="44" height="44" rx="8" />
    <rect x="64" y="64" width="44" height="98" rx="8" />
    <rect x="226" y="64" width="44" height="98" rx="8" />

    <rect x="10" y="118" width="44" height="44" rx="8" />
    <rect x="118" y="118" width="44" height="44" rx="8" />
  </g>
  <g fill="#ff6d00">
    <rect x="10" y="10" width="44" height="44" rx="8" />
    <rect x="172" y="64" width="44" height="44" rx="8" />
    <rect x="172" y="118" width="44" height="44" rx="8" />
  </g>
</svg>
